<svg viewBox="0 0 24 24" fill="none" xmlns="http://www.w3.org/2000/svg">
<g clip-path="url(#clip0_371_4224)">
<rect width="24" height="24" />
<path d="M18.7294 15.3219C18.1264 14.6719 16.9953 13.6938 16.9953 10.5C16.9953 8.07031 15.2961 6.12812 12.9989 5.65313V5C12.9989 4.44937 12.5496 4 11.9991 4C11.4485 4 10.9992 4.44937 10.9992 5V5.6525C8.70263 6.12875 7.00379 8.06875 7.00379 10.5C7.00379 13.6938 5.87113 14.6719 5.26965 15.3219C5.08202 15.525 5 15.7656 5 16C5.00391 16.5119 5.4062 17 6.00393 17H17.9961C18.5935 17 18.9959 16.5119 19 16C18.9981 15.7656 18.9169 15.525 18.7294 15.3219ZM7.10909 15.5C7.77307 14.625 8.49953 13.175 8.49953 10.5188V10.5C8.49953 8.56563 10.0649 7 11.9991 7C13.9332 7 15.4986 8.56625 15.4986 10.5V10.5195C15.4986 13.175 16.2235 14.625 16.889 15.5H7.10909ZM11.9709 20C13.1052 20 13.9988 19.1062 13.9988 18H9.99933C9.99933 19.1062 10.893 20 11.9709 20Z" fill="black"/>
</g>
<defs>
<clipPath id="clip0_371_4224">
<rect width="24" height="24" />
</clipPath>
</defs>
</svg>
