<svg viewBox="0 0 24 24" fill="none" xmlns="http://www.w3.org/2000/svg">
<g clip-path="url(#clip0_371_4231)">

<path d="M18.25 16.5C18.6641 16.5 19 16.1641 19 15.75V4.75C19 4.33594 18.6656 4 18.25 4H7.5C6.12156 4 5 5.12125 5 6.5V17.5C5 18.8781 6.12156 20 7.5 20H18.25C18.6641 20 19 19.6641 19 19.25C19 18.8359 18.6641 18.5 18.25 18.5H18V16.5H18.25ZM16.5 18.5H7.5C6.94875 18.5 6.5 18.0519 6.5 17.5C6.5 16.9481 6.94875 16.5 7.5 16.5H16.5V18.5ZM17.5 15H7.5C7.14438 15 6.80625 15.0742 6.5 15.209V6.5C6.5 5.94813 6.94875 5.5 7.5 5.5H17.5V15ZM12.1906 13.3719C12.3624 13.5439 12.6356 13.5439 12.8075 13.3719L15.455 10.6981C16.2244 9.91625 16.1775 8.63031 15.3143 7.91094C14.5688 7.28438 13.4531 7.39687 12.7656 8.09062L12.4962 8.36444L12.2268 8.09062C11.5437 7.39687 10.4313 7.28437 9.68125 7.90937C8.82188 8.62813 8.775 9.91563 9.54375 10.6969L12.1906 13.3719Z" fill="black"/>
</g>
<defs>
<clipPath id="clip0_371_4231">
<rect width="24" height="24" />
</clipPath>
</defs>
</svg>
