<svg width="24" height="24" viewBox="0 0 24 24" fill="none" xmlns="http://www.w3.org/2000/svg">
<g clip-path="url(#clip0_371_4216)">
<rect width="24" height="24" />
<path d="M17 5.875H15.75V4.70312C15.75 4.31494 15.4141 4 15.0281 4C14.6422 4 14.25 4.31494 14.25 4.70312V5.875H9.75V4.70312C9.75 4.31494 9.41563 4 9 4C8.58437 4 8.25 4.31494 8.25 4.70312V5.875H7C5.89531 5.875 5 6.71436 5 7.75V17.125C5 18.1606 5.89531 19 7 19H17C18.1047 19 19 18.1606 19 17.125V7.75C19 6.71436 18.1031 5.875 17 5.875ZM17 17.5938H7C6.72431 17.5938 6.5 17.3835 6.5 17.125V9.625H17.5V17.125C17.5 17.3828 17.275 17.5938 17 17.5938Z" fill="black"/>
</g>
<defs>
<clipPath id="clip0_371_4216">
<rect width="24" height="24" />
</clipPath>
</defs>
</svg>
