<svg viewBox="0 0 24 24" fill="none" xmlns="http://www.w3.org/2000/svg">
<g clip-path="url(#clip0_371_4233)">
<rect width="24" height="24" />
<path d="M18 7H15.75L15.4857 6.29656C15.1938 5.51719 14.4469 5 13.6125 5H10.3875C9.55312 5 8.80937 5.51594 8.51562 6.29531L8.25 7H6C4.89531 7 4 7.89687 4 9V17C4 18.1047 4.89531 19 6 19H18C19.1047 19 20 18.1047 20 17V9C20 7.89687 19.1031 7 18 7ZM19 17C19 17.55 18.55 18 18 18H6C5.45 18 5 17.55 5 17V9C5 8.45 5.45 8 6 8H8.94531L9.44875 6.65062C9.59375 6.25937 9.94063 6 10.3844 6H13.6125C14.03 6 14.4034 6.25941 14.5494 6.65062L15.0562 8H18C18.55 8 19 8.45 19 9V17ZM12 9.25C9.93125 9.25 8.25 10.9313 8.25 13C8.25 15.0688 9.92969 16.75 12 16.75C14.0703 16.75 15.75 15.0703 15.75 13C15.75 10.9297 14.0719 9.25 12 9.25ZM12 15.75C10.4844 15.75 9.25 14.5156 9.25 13C9.25 11.4844 10.4844 10.25 12 10.25C13.5156 10.25 14.75 11.4844 14.75 13C14.75 14.5156 13.5156 15.75 12 15.75Z" fill="black"/>
</g>
<defs>
<clipPath id="clip0_371_4233">
<rect width="24" height="24" />
</clipPath>
</defs>
</svg>
