<svg viewBox="0 0 24 24" fill="none" xmlns="http://www.w3.org/2000/svg">
<g clip-path="url(#clip0_371_4222)">
<rect width="24" height="24" />
<path d="M19.3076 13.5338C18.4429 12.813 17.3838 13.093 16.8524 13.486L15.1753 14.7293H15.0815C15.1022 13.6924 14.2578 12.8748 13.1856 12.8748H9.18585C8.397 12.8748 7.61926 13.1318 7.00262 13.5967L6.21433 14.1912H4.66663C4.29998 14.1901 4 14.4854 4 14.8464C4 15.207 4.29998 15.5023 4.66663 15.5023L6.66653 15.5007L7.81258 14.6416C8.20145 14.3479 8.68754 14.1906 9.18779 14.1906H13.1876C13.962 14.1906 13.9931 15.2907 13.1563 15.2907H11.4941C11.2857 15.2907 11.1121 15.4581 11.1121 15.6664C11.1121 15.8748 11.2858 16.0457 11.4941 16.0457H15.2328C15.5025 16.0457 15.765 15.9593 15.9805 15.7997L17.6821 14.5391C17.9113 14.3717 18.2515 14.3581 18.4704 14.5391C18.7515 14.7714 18.7308 15.1711 18.446 15.3794L15.6517 17.4428C15.4364 17.6 15.1759 17.6888 14.9051 17.6888H4.66663C4.29998 17.6875 4 17.9828 4 18.3437C4 18.7047 4.29998 19 4.66663 19H14.9106C15.4661 19 16.0044 18.8224 16.4455 18.4944L19.2453 16.4209C19.7073 16.0793 19.9814 15.56 19.9989 14.9998C20.0186 14.4389 19.7714 13.903 19.3076 13.5338ZM11.6441 11.8494C11.8385 12.051 12.1579 12.051 12.3524 11.8494L15.355 8.72663C16.2299 7.8207 16.1805 6.31757 15.198 5.48082C14.3403 4.74935 13.0662 4.88197 12.2843 5.69203L11.9746 6.00885L11.6885 5.69083C10.908 4.88077 9.63027 4.74812 8.75254 5.47973C7.79703 6.31702 7.74148 7.82152 8.62199 8.72663L11.6441 11.8494Z" fill="black"/>
</g>
<defs>
<clipPath id="clip0_371_4222">
<rect width="24" height="24" />
</clipPath>
</defs>
</svg>
