<svg width="190" height="190" viewBox="0 0 190 190" fill="none" xmlns="http://www.w3.org/2000/svg">
<circle cx="95" cy="95" r="94.5"  />
<path d="M117.081 64.3459C103.144 57.5493 86.8005 61.5691 77.1214 73.0201L91.7379 87.6473C93.3908 89.3001 93.3908 91.9659 91.7379 93.6187C90.911 94.4121 89.8164 94.8365 88.7258 94.8365C87.6351 94.8365 86.5921 94.4121 85.7665 93.6187L72.6785 80.3191L38.8014 149.819C38.0411 151.405 38.0081 153.323 38.8014 155.01C40.256 157.951 43.8261 159.175 46.7352 157.755L82.0667 140.499L69.0818 127.472C67.3954 125.852 67.3954 123.14 69.0818 121.522C70.7347 119.869 73.411 119.869 75.0321 121.522L90.1009 136.59L117.076 123.397C123.423 120.321 128.844 115.13 132.184 108.288C140.168 91.9817 133.398 72.3325 117.081 64.3459Z" fill="#FC6C4D"/>
<path d="M139.91 55.1426C145.067 44.3527 142.422 31.627 131.685 22.9316C118.396 33.9727 117.798 51.3608 129.602 63.1027L131.718 65.2184C143.691 77.0132 161.119 76.4314 172.121 63.1292C163.42 52.6302 150.462 49.9857 139.91 55.1426Z" fill="#54D559"/>
</svg>
