<svg width="140" height="140" viewBox="0 0 140 140" fill="none" xmlns="http://www.w3.org/2000/svg">
<circle cx="70" cy="70" r="69.5"  />
<path d="M86.2701 47.4126C76.0008 42.4046 63.9582 45.3665 56.8262 53.8041L67.5963 64.582C68.8142 65.7999 68.8142 67.7641 67.5963 68.982C66.987 69.5666 66.1804 69.8794 65.3768 69.8794C64.5732 69.8794 63.8047 69.5666 63.1963 68.982L53.5525 59.1823L28.5905 110.392C28.0303 111.562 28.0059 112.974 28.5905 114.218C29.6622 116.384 32.2929 117.287 34.4364 116.24L60.4702 103.525L50.9024 93.9265C49.6597 92.7329 49.6597 90.7346 50.9024 89.5421C52.1203 88.3242 54.0923 88.3242 55.2868 89.5421L66.3901 100.645L86.2662 90.9236C90.9429 88.6574 94.9376 84.8322 97.3988 79.7911C103.282 67.7758 98.2932 53.2974 86.2701 47.4126Z" fill="#FC6C4D"/>
<path d="M103.091 40.6309C106.891 32.6804 104.943 23.3036 97.0312 16.8965C87.2393 25.032 86.7989 37.8443 95.4967 46.4963L97.0556 48.0552C105.878 56.7461 118.72 56.3174 126.826 46.5157C120.415 38.7797 110.867 36.831 103.091 40.6309Z" fill="#54D559"/>
</svg>
