<svg width="120" height="120" viewBox="0 0 120 120" fill="none" xmlns="http://www.w3.org/2000/svg">
<circle cx="60" cy="60" r="59.5" />
<path d="M73.9454 40.6396C65.1431 36.3471 54.8209 38.8858 48.7078 46.1181L57.9393 55.3563C58.9832 56.4002 58.9832 58.0838 57.9393 59.1277C57.417 59.6288 56.7257 59.8969 56.0369 59.8969C55.348 59.8969 54.6893 59.6288 54.1678 59.1277L45.9017 50.728L24.5057 94.6224C24.0255 95.6245 24.0046 96.8355 24.5057 97.9011C25.4244 99.7584 27.6792 100.532 29.5165 99.6348L51.8312 88.7364L43.6302 80.5087C42.5651 79.4857 42.5651 77.7728 43.6302 76.7506C44.6741 75.7067 46.3644 75.7067 47.3883 76.7506L56.9054 86.2677L73.942 77.9348C77.9507 75.9923 81.3747 72.7136 83.4842 68.3926C88.5267 58.0938 84.2509 45.6838 73.9454 40.6396Z" fill="#FC6C4D"/>
<path d="M88.364 34.8262C91.621 28.0115 89.9507 19.9742 83.1695 14.4824C74.7764 21.4558 74.3989 32.4377 81.8541 39.8537L83.1903 41.1899C90.7524 48.6392 101.759 48.2718 108.708 39.8704C103.213 33.2394 95.0283 31.5692 88.364 34.8262Z" fill="#54D559"/>
</svg>
