<svg width="100" height="100" viewBox="0 0 100 100" fill="none" xmlns="http://www.w3.org/2000/svg">
<circle cx="50" cy="50" r="49.5"  />
<path d="M61.6216 33.8667C54.2864 30.2895 45.6846 32.4052 40.5903 38.432L48.2832 46.1306C49.1531 47.0005 49.1531 48.4035 48.2832 49.2734C47.848 49.691 47.2719 49.9144 46.6979 49.9144C46.1239 49.9144 45.5749 49.691 45.1404 49.2734L38.2519 42.2736L20.4219 78.8523C20.0218 79.6874 20.0044 80.6965 20.4219 81.5846C21.1875 83.1323 23.0665 83.7768 24.5976 83.0293L43.1931 73.9473L36.359 67.0909C35.4714 66.2384 35.4714 64.811 36.359 63.9592C37.2289 63.0892 38.6375 63.0892 39.4907 63.9592L47.4216 71.8901L61.6188 64.946C64.9594 63.3273 67.8127 60.595 69.5707 56.9942C73.7728 48.4118 70.2095 38.0702 61.6216 33.8667Z" fill="#FC6C4D"/>
<path d="M73.6365 29.0215C76.3507 23.3426 74.9588 16.6449 69.3077 12.0684C62.3135 17.8795 61.999 27.0311 68.2116 33.211L69.3251 34.3246C75.6269 40.5323 84.7994 40.2261 90.5896 33.225C86.0103 27.6992 79.1901 26.3073 73.6365 29.0215Z" fill="#54D559"/>
</svg>
