<svg width="170" height="170" viewBox="0 0 170 170" fill="none" xmlns="http://www.w3.org/2000/svg">
<circle cx="85" cy="85" r="84.5"  />
<path d="M104.756 57.573C92.2863 51.4918 77.6632 55.0884 69.0029 65.3341L82.0809 78.4215C83.5598 79.9004 83.5598 82.2855 82.0809 83.7644C81.341 84.4743 80.3616 84.8541 79.3858 84.8541C78.41 84.8541 77.4767 84.4743 76.738 83.7644L65.0277 71.8648L34.7167 134.049C34.0364 135.468 34.0068 137.184 34.7167 138.693C36.0181 141.325 39.2125 142.42 41.8153 141.149L73.4277 125.71L61.8097 114.054C60.3007 112.605 60.3007 110.178 61.8097 108.73C63.2885 107.251 65.6831 107.251 67.1336 108.73L80.6162 122.213L104.751 110.408C110.43 107.656 115.281 103.011 118.27 96.8897C125.413 82.2997 119.356 64.7189 104.756 57.573Z" fill="#FC6C4D"/>
<path d="M125.182 49.3379C129.796 39.6838 127.43 28.2976 117.823 20.5176C105.933 30.3965 105.398 45.9542 115.96 56.4602L117.853 58.3531C128.566 68.9064 144.159 68.3858 154.003 56.4838C146.218 47.09 134.623 44.7238 125.182 49.3379Z" fill="#54D559"/>
</svg>
