<svg width="80" height="80" viewBox="0 0 80 80" fill="none" xmlns="http://www.w3.org/2000/svg">
<circle cx="40" cy="40" r="39.5"  />
<path d="M49.2969 27.0937C43.4287 24.232 36.5473 25.9246 32.4718 30.746L38.6262 36.9048C39.3221 37.6008 39.3221 38.7232 38.6262 39.4191C38.278 39.7532 37.8171 39.9319 37.3579 39.9319C36.8987 39.9319 36.4595 39.7532 36.1119 39.4191L30.6012 33.8193L16.3371 63.0822C16.017 63.7503 16.0031 64.5576 16.3371 65.268C16.9496 66.5063 18.4528 67.0218 19.6777 66.4239L34.5541 59.1582L29.0868 53.6731C28.3767 52.9911 28.3767 51.8492 29.0868 51.1677C29.7827 50.4718 30.9096 50.4718 31.5922 51.1677L37.9369 57.5125L49.2947 51.9572C51.9671 50.6622 54.2498 48.4764 55.6561 45.5957C59.0178 38.7299 56.1672 30.4565 49.2969 27.0937Z" fill="#FC6C4D"/>
<path d="M58.909 23.2168C61.0803 18.6737 59.9668 13.3155 55.446 9.6543C49.8506 14.3032 49.599 21.6245 54.5691 26.5684L55.4599 27.4593C60.5013 32.4255 67.8393 32.1805 72.4715 26.5796C68.8081 22.159 63.3519 21.0455 58.909 23.2168Z" fill="#54D559"/>
</svg>
