<svg viewBox="0 0 24 24" fill="none" xmlns="http://www.w3.org/2000/svg">
<g clip-path="url(#clip0_371_4238)">
<rect width="24" height="24" />
<path d="M12 5C8.13359 5 5 8.13359 5 12C5 15.8664 8.13359 19 12 19C15.8664 19 19 15.8664 19 12C19 8.13359 15.8664 5 12 5ZM12 17.6875C8.86367 17.6875 6.3125 15.1361 6.3125 12C6.3125 8.86395 8.86367 6.3125 12 6.3125C15.1363 6.3125 17.6875 8.86395 17.6875 12C17.6875 15.1361 15.1363 17.6875 12 17.6875ZM12 13.3125C12.3623 13.3125 12.6562 13.0186 12.6562 12.6562V9.15625C12.6562 8.79531 12.3637 8.5 12 8.5C11.6363 8.5 11.3438 8.79531 11.3438 9.15625V12.6562C11.3438 13.0199 11.6391 13.3125 12 13.3125ZM12 14.2176C11.5253 14.2176 11.1403 14.6026 11.1403 15.0773C11.1414 15.552 11.5242 15.9375 12 15.9375C12.4758 15.9375 12.8597 15.5525 12.8597 15.0778C12.8586 14.6031 12.4758 14.2176 12 14.2176Z" fill="black"/>
</g>
<defs>
<clipPath id="clip0_371_4238">
<rect width="24" height="24" />
</clipPath>
</defs>
</svg>
