<svg viewBox="0 0 24 24" fill="none" xmlns="http://www.w3.org/2000/svg">
<g clip-path="url(#clip0_371_4217)">
<rect width="24" height="24" />
<path d="M14.1902 9.78516C13.9339 9.52881 13.5187 9.52881 13.2622 9.78516L12 11.073L10.6902 9.78516C10.4339 9.52881 10.0187 9.52881 9.76219 9.78516C9.5057 10.0415 9.50584 10.4567 9.76219 10.7132L11.0482 11.9992L9.78516 13.2852C9.52881 13.5415 9.52881 13.9567 9.78516 14.2132C10.0414 14.4695 10.4567 14.4697 10.7132 14.2132L12 12.927L13.286 14.2129C13.5423 14.4692 13.9575 14.4694 14.214 14.2129C14.4704 13.9566 14.4704 13.5414 14.214 13.2849L12.928 11.9989L14.214 10.7129C14.4691 10.4578 14.4691 10.0422 14.1902 9.78516ZM12 5C8.13359 5 5 8.13359 5 12C5 15.8664 8.13359 19 12 19C15.8664 19 19 15.8664 19 12C19 8.13359 15.8664 5 12 5ZM12 17.6875C8.86367 17.6875 6.3125 15.1361 6.3125 12C6.3125 8.86395 8.86367 6.3125 12 6.3125C15.1363 6.3125 17.6875 8.86395 17.6875 12C17.6875 15.1361 15.1363 17.6875 12 17.6875Z" fill="black"/>
</g>
<defs>
<clipPath id="clip0_371_4217">
<rect width="24" height="24" />
</clipPath>
</defs>
</svg>
