<svg viewBox="0 0 24 24" fill="none" xmlns="http://www.w3.org/2000/svg">
<g clip-path="url(#clip0_371_4240)">
<rect width="24" height="24" />
<path d="M12 5C8.13359 5 5 8.13359 5 12C5 15.8664 8.13359 19 12 19C15.8664 19 19 15.8664 19 12C19 8.13359 15.8664 5 12 5ZM12 17.6875C8.86367 17.6875 6.3125 15.1361 6.3125 12C6.3125 8.86395 8.86367 6.3125 12 6.3125C15.1363 6.3125 17.6875 8.86395 17.6875 12C17.6875 15.1361 15.1363 17.6875 12 17.6875ZM14.8301 8.65586C14.5536 8.4213 14.1388 8.45633 13.905 8.73319L12 10.9828L10.0941 8.73242C9.86172 8.45625 9.44609 8.4207 9.16992 8.65586C8.89375 8.88828 8.8582 9.30391 9.09336 9.58008L11.1414 12L9.09391 14.4199C8.85979 14.6964 8.89438 15.1109 9.17123 15.345C9.29297 15.448 9.44336 15.5 9.56914 15.5C9.75541 15.5 9.94074 15.4209 10.0706 15.2676L12 13.0172L13.905 15.2687C14.0344 15.4207 14.2203 15.5 14.4062 15.5C14.5558 15.5 14.7065 15.4492 14.8295 15.3449C15.1063 15.1108 15.141 14.6963 14.9069 14.4199L12.8586 12L14.9061 9.58008C15.1418 9.30391 15.1062 8.88828 14.8301 8.65586Z" fill="black"/>
</g>
<defs>
<clipPath id="clip0_371_4240">
<rect width="24" height="24" />
</clipPath>
</defs>
</svg>
