<svg viewBox="0 0 24 24" fill="none" xmlns="http://www.w3.org/2000/svg">
<g clip-path="url(#clip0_371_4229)">
<rect width="24" height="24" />
<path d="M12.6944 12.1094V9.15625C12.6944 8.79531 12.4013 8.5 12.037 8.5C11.6727 8.5 11.3796 8.79531 11.3796 9.15625V12.4375C11.3796 12.6443 11.4771 12.8384 11.6424 12.9622L13.3955 14.2747C13.5134 14.3625 13.6284 14.4062 13.7654 14.4062C13.9653 14.4062 14.1626 14.3157 14.2919 14.1439C14.5097 13.8535 14.4507 13.4423 14.1605 13.2254L12.6944 12.1094ZM12.0123 5C8.13911 5 5 8.13359 5 12C5 15.8664 8.13911 19 12.0123 19C15.8855 19 19 15.8664 19 12C19 8.13359 15.9102 5 12.0123 5ZM12.037 17.6875C8.89513 17.6875 6.33946 15.1361 6.33946 12C6.33946 8.86395 8.89513 6.3125 12.037 6.3125C15.1788 6.3125 17.7345 8.86395 17.7345 12C17.7345 15.1361 15.1788 17.6875 12.037 17.6875Z" fill="black"/>
</g>
<defs>
<clipPath id="clip0_371_4229">
<rect width="24" height="24" />
</clipPath>
</defs>
</svg>
