<svg width="24" height="24" viewBox="0 0 24 24" fill="none" xmlns="http://www.w3.org/2000/svg">
<g clip-path="url(#clip0_371_4234)">
<rect width="24" height="24" />
<path d="M5.13848 18.1792C4.93056 18.3902 4.96133 18.7055 5.20743 18.8842C5.31713 18.9605 5.44838 19.0011 5.58327 19.0011C5.74905 19.0011 5.9137 18.9406 6.02916 18.8243L11.9999 12.7761L17.9718 18.8261C18.0867 18.9417 18.2515 19.0011 18.4173 19.0011C18.5501 19.0011 18.684 18.9621 18.7932 18.883C19.0393 18.7042 19.0701 18.3889 18.8622 18.178L12.7663 11.9998L18.8621 5.82361C19.07 5.61268 19.0392 5.29736 18.7932 5.11861C18.5471 4.94086 18.1796 4.96821 17.971 5.17721L11.9999 11.2261L6.02807 5.17611C5.82014 4.96711 5.45202 4.93977 5.20593 5.11752C4.95984 5.29624 4.92907 5.61158 5.13699 5.82252L11.2328 12.0006L5.13848 18.1792Z" fill="black"/>
</g>
<defs>
<clipPath id="clip0_371_4234">
<rect width="24" height="24" />
</clipPath>
</defs>
</svg>
