<svg viewBox="0 0 24 24" fill="none" xmlns="http://www.w3.org/2000/svg">
<g clip-path="url(#clip0_371_4239)">
<rect width="24" height="24" />
<path d="M17.4444 6.75H6.55556C5.69635 6.75 5 7.42148 5 8.25V15.75C5 16.5785 5.69635 17.25 6.55556 17.25H17.4444C18.3036 17.25 19 16.5785 19 15.75V8.25C19 7.42148 18.3024 6.75 17.4444 6.75ZM6.16983 8.25C6.16983 8.04286 6.34395 7.875 6.55872 7.875H17.4427C17.6575 7.875 17.8316 8.04286 17.8316 8.25V9H6.16983V8.25ZM17.8309 15.75C17.8309 15.9571 17.6568 16.125 17.442 16.125H6.55872C6.34395 16.125 6.16983 15.9571 6.16983 15.75L6.16667 11.25H17.8333L17.8309 15.75ZM7.91667 15H9.08333C9.40538 15 9.64479 14.748 9.64479 14.4375C9.64479 14.127 9.4066 13.875 9.08333 13.875H7.91667C7.59583 13.875 7.33333 14.1281 7.33333 14.4375C7.33333 14.7469 7.59583 15 7.91667 15ZM11.0278 15H13.75C14.072 15 14.3333 14.748 14.3333 14.4375C14.3333 14.1267 14.072 13.875 13.75 13.875H11.0278C10.7045 13.875 10.4444 14.1258 10.4444 14.4375C10.4444 14.7492 10.7045 15 11.0278 15Z" fill="black"/>
</g>
<defs>
<clipPath id="clip0_371_4239">
<rect width="24" height="24" />
</clipPath>
</defs>
</svg>
