<svg width="24" height="24" viewBox="0 0 24 24" fill="none" xmlns="http://www.w3.org/2000/svg">
<g clip-path="url(#clip0_371_4215)">
<rect width="24" height="24" />
<path d="M18 7.8H16V6.86667C16 5.83563 15.1047 5 14 5H10C8.89688 5 8 5.83563 8 6.86667V7.8H6C4.89531 7.8 4 8.63708 4 9.66667V17.1333C4 18.1644 4.89531 19 6 19H18C19.1047 19 20 18.1644 20 17.1333V9.66667C20 8.63708 19.1031 7.8 18 7.8ZM9.5 6.86667C9.5 6.60889 9.72388 6.4 10 6.4H14C14.2761 6.4 14.5 6.60889 14.5 6.86667V7.8H9.5V6.86667ZM18.5 17.1333C18.5 17.39 18.275 17.6 18 17.6H6C5.72497 17.6 5.5 17.39 5.5 17.1333V9.66667C5.5 9.40997 5.72497 9.2 6 9.2H18C18.275 9.2 18.5 9.40997 18.5 9.66667V17.1333ZM14.5 12.4667H13V11.0667C13 10.81 12.775 10.6 12.5 10.6H11.5C11.225 10.6 11 10.81 11 11.0667V12.4667H9.5C9.225 12.4667 9 12.6767 9 12.9333V13.8667C9 14.1233 9.225 14.3333 9.5 14.3333H11V15.7333C11 15.99 11.225 16.2 11.5 16.2H12.5C12.7761 16.2 13 15.991 13 15.7333V14.3333H14.5C14.7761 14.3333 15 14.1244 15 13.8667V12.9333C15 12.6767 14.775 12.4667 14.5 12.4667Z" fill="black"/>
</g>
<defs>
<clipPath id="clip0_371_4215">
<rect width="24" height="24" />
</clipPath>
</defs>
</svg>
