<svg width="24" height="24" viewBox="0 0 24 24" fill="none" xmlns="http://www.w3.org/2000/svg">
<g clip-path="url(#clip0_371_4225)">
<rect width="24" height="24" />
<path d="M11.9709 20C13.1052 20 13.9988 19.1063 13.9988 18H9.99933C9.99933 19.1063 10.893 20 11.9709 20ZM18.7294 15.3219C18.1279 14.6734 16.9953 13.6969 16.9953 10.5C16.9953 8.07031 15.2961 6.12813 12.9989 5.65313V5C12.9989 4.44937 12.5496 4 11.9991 4C11.4485 4 10.9992 4.44937 10.9992 5V5.6525C8.70263 6.12906 7.00379 8.07188 7.00379 10.5C7.00379 13.6969 5.87113 14.6719 5.26965 15.3219C5.08202 15.525 5 15.7656 5 16C5.00391 16.5119 5.4062 17 6.00393 17H17.9961C18.5935 17 18.9959 16.5119 19 16C18.9981 15.7656 18.9169 15.525 18.7294 15.3219Z" fill="black"/>
</g>
<defs>
<clipPath id="clip0_371_4225">
<rect width="24" height="24" />
</clipPath>
</defs>
</svg>
