<svg width="24" height="24" viewBox="0 0 24 24" fill="none" xmlns="http://www.w3.org/2000/svg">
<g clip-path="url(#clip0_371_4223)">
<rect width="24" height="24" />
<path d="M11.6459 11.8491C11.8404 12.0514 12.1599 12.0514 12.3544 11.8491L15.3578 8.7262C16.233 7.82106 16.1829 6.31704 15.2022 5.48026C14.3437 4.7474 13.0684 4.88139 12.2877 5.69083L11.9766 6.00804L11.6904 5.69083C10.9097 4.88139 9.63166 4.7474 8.75371 5.48026C7.79797 6.31704 7.7424 7.82106 8.62313 8.7262L11.6459 11.8491ZM19.7864 14.1954C19.4225 13.7086 18.7279 13.6019 18.2333 13.9629L14.9077 16.3748H11.557C11.3153 16.3748 11.1375 16.1779 11.1375 15.9619C11.1375 15.724 11.3375 15.549 11.557 15.549H13.7297C14.1492 15.549 14.5854 15.2509 14.6576 14.8216C14.7465 14.2993 14.3215 13.7988 13.7797 13.7988H9.30937C8.58423 13.7988 7.83408 14.0504 7.25064 14.5153L5.95872 15.5462H4.41953C4.17781 15.5462 4 15.7459 4 15.9838V18.5625C4 18.8031 4.20282 19 4.41953 19H14.0353C14.6465 19 15.255 18.8031 15.7495 18.4449L19.503 15.724C20.0448 15.3658 20.1504 14.6821 19.7864 14.1954Z" fill="black"/>
</g>
<defs>
<clipPath id="clip0_371_4223">
<rect width="24" height="24" />
</clipPath>
</defs>
</svg>
