<svg viewBox="0 0 24 24" fill="none" xmlns="http://www.w3.org/2000/svg">
<g clip-path="url(#clip0_371_4232)">
<rect width="24" height="24" />
<path d="M19 15.25V4.75C19 4.33562 18.6656 4 18.25 4H8C6.34312 4 5 5.34312 5 7V17C5 18.6569 6.34312 20 8 20H18.25C18.6641 20 19 19.6641 19 19.25V18.75C19 18.4244 18.7898 18.1544 18.5 18.0506V15.9497C18.7906 15.8469 19 15.575 19 15.25ZM9.68125 7.40937C10.4313 6.78437 11.5484 6.8975 12.2322 7.58906L12.5 7.8625L12.7695 7.58906C13.457 6.89781 14.5705 6.78437 15.3205 7.40937C16.1798 8.12813 16.223 9.41344 15.4533 10.1947L12.8048 12.8666C12.633 13.0384 12.3595 13.0384 12.1877 12.8666L9.53922 10.1947C8.775 9.41562 8.82188 8.12813 9.68125 7.40937ZM17 18H8C7.44781 18 7 17.5522 7 17C7 16.4478 7.44781 16 8 16H17V18Z" fill="black"/>
</g>
<defs>
<clipPath id="clip0_371_4232">
<rect width="24" height="24" />
</clipPath>
</defs>
</svg>
