<svg width="24" height="24" viewBox="0 0 24 24" fill="none" xmlns="http://www.w3.org/2000/svg">
<g clip-path="url(#clip0_371_4227)">
<rect width="24" height="24" />
<path d="M12 12.0005C14.2094 12.0005 16 10.2094 16 8.00023C16 5.79104 14.2094 4 12 4C9.79063 4 8 5.79104 8 8.00023C8 10.2094 9.79063 12.0005 12 12.0005ZM13.5844 13.5006H10.4156C7.42531 13.5006 5 15.9257 5 18.9165C5 19.5147 5.485 20 6.08312 20H17.9175C18.5156 20.0009 19 19.5165 19 18.9165C19 15.9257 16.575 13.5006 13.5844 13.5006Z" fill="black"/>
</g>
<defs>
<clipPath id="clip0_371_4227">
<rect width="24" height="24" />
</clipPath>
</defs>
</svg>
