<svg viewBox="0 0 24 24" fill="none" xmlns="http://www.w3.org/2000/svg">
<rect width="24" height="24" />
<path d="M12 5C8.13359 5 5 8.13359 5 12C5 15.8664 8.13359 19 12 19C15.8664 19 19 15.8664 19 12C19 8.13359 15.8664 5 12 5ZM14.9066 14.4199C15.1408 14.6964 15.1062 15.1109 14.8293 15.345C14.707 15.448 14.5566 15.5 14.4062 15.5C14.22 15.5 14.0346 15.4209 13.9048 15.2676L12 13.0172L10.0941 15.2676C9.96563 15.4207 9.77969 15.5 9.56914 15.5C9.44336 15.5 9.29297 15.448 9.16992 15.3441C8.8932 15.11 8.85848 14.6955 9.09259 14.4191L11.1414 12L9.09336 9.58008C8.8582 9.30391 8.89375 8.88828 9.16992 8.65586C9.44609 8.4207 9.86172 8.45625 10.0941 8.73242L12 10.9828L13.905 8.73133C14.1387 8.45461 14.5536 8.41934 14.8301 8.654C15.1068 8.88812 15.1415 9.30259 14.9074 9.57904L12.8586 12L14.9066 14.4199Z" fill="black"/>
</svg>
