<svg width="24" height="24" viewBox="0 0 24 24" fill="none" xmlns="http://www.w3.org/2000/svg">
<g clip-path="url(#clip0_371_4237)">
<rect width="24" height="24" />
<path d="M17.6875 7.6H15.5V6.3C15.5 5.58229 14.9121 5 14.1875 5H9.8125C9.08789 5 8.5 5.58229 8.5 6.3V7.6H6.3125C5.58789 7.6 5 8.18229 5 8.9V16.7C5 17.4177 5.58789 18 6.3125 18H17.6875C18.4121 18 19 17.4177 19 16.7V8.9C19 8.18229 18.4121 7.6 17.6875 7.6ZM9.8125 6.3H14.1875V7.6H9.8125V6.3ZM15.0625 13.5042C15.0625 13.7435 14.8666 13.9375 14.625 13.9375H13.1484V15.4C13.1484 15.6393 12.9525 15.8333 12.7355 15.8333H11.3137C11.0721 15.8333 10.8762 15.6393 10.8762 15.4V13.9619H9.375C9.13339 13.9619 8.9375 13.7678 8.9375 13.5285V12.1202C8.9375 11.8808 9.13339 11.6869 9.375 11.6869H10.827V10.2C10.827 9.96064 11.0229 9.76667 11.2645 9.76667H12.6863C12.9279 9.76667 13.0992 9.96064 13.0992 10.2V11.6625H14.625C14.8666 11.6625 15.0625 11.8565 15.0625 12.0958V13.5042Z" fill="black"/>
</g>
<defs>
<clipPath id="clip0_371_4237">
<rect width="24" height="24" />
</clipPath>
</defs>
</svg>
