<svg viewBox="0 0 24 24" fill="none" xmlns="http://www.w3.org/2000/svg">
<g clip-path="url(#clip0_371_4221)">
<rect width="24" height="24" />
<path d="M20 11.9877C20 12.4698 19.6028 12.8396 19.0861 12.8396L18.1972 12.8642V18.1235C18.1972 18.6083 17.8 19 17.3083 19H14.6417C14.15 19 13.7778 18.6083 13.7778 18.1235V15.0556C13.7778 14.8145 13.5778 14.6419 13.3333 14.6419H10.6667C10.4222 14.6419 10.2222 14.8392 10.2222 15.0556V18.1235C10.2222 18.6083 9.825 19 9.33333 19H6.66667C6.175 19 5.77778 18.6083 5.77778 18.1235V12.8642H4.88889C4.39444 12.8642 4 12.4698 4 11.9877C4 11.7165 4.10556 11.4974 4.30278 11.3275L11.3889 5.2164C11.5833 5.04931 11.8028 5 11.975 5C12.1833 5 12.3917 5.07122 12.5611 5.2164L19.6472 11.3275C19.8944 11.4974 20 11.7165 20 11.9877Z" fill="black"/>
</g>
<defs>
<clipPath id="clip0_371_4221">
<rect width="24" height="24" />
</clipPath>
</defs>
</svg>
