<svg width="24" height="24" viewBox="0 0 24 24" fill="none" xmlns="http://www.w3.org/2000/svg">
<rect width="24" height="24" />
<path d="M12 5C8.13359 5 5 8.13359 5 12C5 15.8664 8.13359 19 12 19C15.8664 19 19 15.8664 19 12C19 8.13359 15.8664 5 12 5ZM15.5 13.75C15.5 14.2332 15.1082 14.625 14.625 14.625H9.375C8.89184 14.625 8.5 14.2332 8.5 13.75V10.25C8.5 9.76684 8.89184 9.375 9.375 9.375H10.3594L10.5269 8.92547C10.6219 8.66953 10.868 8.5 11.1414 8.5H12.8572C13.1307 8.5 13.3751 8.6692 13.4708 8.92547L13.6406 9.375H14.625C15.1082 9.375 15.5 9.76684 15.5 10.25V13.75ZM12 10.6875C11.2754 10.6875 10.6875 11.2754 10.6875 12C10.6875 12.7246 11.2754 13.3125 12 13.3125C12.7246 13.3125 13.3125 12.7246 13.3125 12C13.3125 11.2754 12.7246 10.6875 12 10.6875Z" fill="black"/>
</svg>
