<svg width="24" height="24" viewBox="0 0 24 24" fill="none" xmlns="http://www.w3.org/2000/svg">
<g clip-path="url(#clip0_371_4218)">
<rect width="24" height="24" />
<path d="M12.0061 18.9998C8.09935 19.0266 4.98605 15.8358 5.00005 11.9929C5.01404 8.11282 8.10693 5 12.0038 5C15.9007 5 19.0139 8.13611 19 12.0523C18.9854 15.8492 15.8861 19.0237 12.0061 18.9998ZM9.59303 12.1839C9.97432 12.5745 10.492 13.0845 10.8722 13.4763C11.2523 13.8681 11.275 13.8797 11.6592 13.4873C12.5477 12.5797 13.4246 11.6611 14.3189 10.7587C14.4647 10.612 14.5084 10.4636 14.3819 10.3384C14.2653 10.222 14.112 10.2354 13.9581 10.3809C13.1057 11.1849 12.3163 12.05 11.5001 12.8889C11.3252 13.0699 11.2086 13.0635 11.0488 12.9075C11.0016 12.8604 10.9567 12.8109 10.9101 12.7625C10.6226 12.4656 10.327 12.1746 10.0513 11.8701C9.93817 11.7467 9.70846 11.7147 9.6216 11.7973C9.52248 11.8916 9.51549 12.1024 9.59303 12.1839Z" fill="black"/>
</g>
<defs>
<clipPath id="clip0_371_4218">
<rect width="24" height="24" />
</clipPath>
</defs>
</svg>
