<svg width="24" height="24" viewBox="0 0 24 24" fill="none" xmlns="http://www.w3.org/2000/svg">
<g clip-path="url(#clip0_371_4220)">
<rect width="24" height="24" />
<path d="M20 11.7694C20 11.5837 19.9194 11.3981 19.7639 11.2698L12.4556 5.15559C12.3306 5.05186 12.1778 5 12.025 5C11.8722 5 11.6694 5.07643 11.5694 5.18015L4.23611 11.2944C4.08056 11.4227 4 11.6083 4 11.7694C4 12.2334 4.38333 12.4244 4.66667 12.4244C4.81944 12.4244 4.97222 12.3726 5.09722 12.2689L5.77778 11.7038V17.8863C5.77778 18.5114 6.275 19 6.88889 19H9.53056C10.1444 19 10.6167 18.5114 10.6167 17.9082V14.6327H13.2583V17.9082C13.3083 18.5114 13.8306 19 14.4194 19H17.0611C17.675 19 18.1472 18.5114 18.1472 17.9082V11.7257L18.9028 12.2934C19.0278 12.3972 19.1806 12.449 19.3333 12.449C19.6139 12.4244 20 12.2061 20 11.7694ZM16.8639 17.6652H14.6417V14.3897C14.6417 13.7865 14.1444 13.2979 13.5556 13.2979H10.4444C9.83056 13.2979 9.35833 13.7865 9.35833 14.3897V17.6652H7.11111V10.6775C7.11111 10.6502 7.1 10.6284 7.09722 10.6038L12 6.53948L16.8639 10.6175V17.6652Z" fill="black"/>
</g>
<defs>
<clipPath id="clip0_371_4220">
<rect width="24" height="24" />
</clipPath>
</defs>
</svg>
