<svg width="24" height="24" viewBox="0 0 24 24" fill="none" xmlns="http://www.w3.org/2000/svg">
<g clip-path="url(#clip0_371_4235)">
<rect width="24" height="24" />
<path d="M12 4C8.68656 4 6 6.68656 6 10C6 12.4191 6.84281 13.0947 11.3844 19.6781C11.5312 19.8938 11.7656 20 12 20C12.2344 20 12.4672 19.8925 12.6163 19.6775C17.1562 13.0938 18 12.4187 18 10C18 6.68656 15.3125 4 12 4ZM12 17.9312C11.4472 17.1356 10.9556 16.4353 10.5194 15.8141C7.79875 11.9406 7.5 11.4656 7.5 10C7.5 7.51875 9.51875 5.5 12 5.5C14.4812 5.5 16.5 7.51875 16.5 10C16.5 11.465 16.2012 11.9397 13.4806 15.8156C13.0438 16.4094 12.5531 17.1375 12 17.9312ZM12 7.47187C10.6194 7.47187 9.5 8.59125 9.5 9.97188C9.5 11.3525 10.6188 12.4719 12 12.4719C13.3806 12.4719 14.5 11.3525 14.5 9.97188C14.5 8.59125 13.3812 7.47187 12 7.47187ZM12 11C11.45 11 11 10.55 11 10C11 9.45 11.4488 9 12 9C12.5512 9 13 9.44875 13 10C13 10.5512 12.55 11 12 11Z" fill="black"/>
</g>
<defs>
<clipPath id="clip0_371_4235">
<rect width="24" height="24" />
</clipPath>
</defs>
</svg>
