<svg width="24" height="24" viewBox="0 0 24 24" fill="none" xmlns="http://www.w3.org/2000/svg">
<g clip-path="url(#clip0_371_4219)">
<rect width="24" height="24" />
<path d="M17 10.0106H16V7.97887C16 5.76936 14.2056 4 12 4C9.79437 4 8 5.79753 8 7.97887V10.0106H7C5.89531 10.0106 5 10.909 5 12.0141V17.9965C5 19.1031 5.89531 20 7 20H17C18.1047 20 19 19.1031 19 17.9965V12.0141C19 10.909 18.1031 10.0106 17 10.0106ZM9.5 8.00704C9.5 6.62618 10.6216 5.50264 12 5.50264C13.3784 5.50264 14.5 6.62618 14.5 8.00704V10.0106H9.5V8.00704ZM17.5 18.0247C17.5 18.3008 17.2757 18.5255 17 18.5255H7C6.72431 18.5255 6.5 18.3008 6.5 18.0247V12.0141C6.5 11.7379 6.72431 11.5132 7 11.5132H17C17.2757 11.5132 17.5 11.7379 17.5 12.0141V18.0247ZM12 13.5167C11.5859 13.5167 11.25 13.8533 11.25 14.268V15.7707C11.25 16.1855 11.5859 16.4938 12 16.4938C12.4141 16.4938 12.75 16.187 12.75 15.7707V14.268C12.75 13.8548 12.4156 13.5167 12 13.5167Z" fill="black"/>
</g>
<defs>
<clipPath id="clip0_371_4219">
<rect width="24" height="24" />
</clipPath>
</defs>
</svg>
