<svg viewBox="0 0 24 24" fill="none" xmlns="http://www.w3.org/2000/svg">
<g clip-path="url(#clip0_371_4243)">
<rect width="24" height="24" />
<path d="M12 4C8.68656 4 6 6.68656 6 10C6 12.4191 6.84281 13.0947 11.3844 19.6781C11.5312 19.8938 11.7656 20 12 20C12.2344 20 12.4672 19.8925 12.6163 19.6775C17.1562 13.0938 18 12.4187 18 10C18 6.68656 15.3125 4 12 4ZM12 17.9312C11.4472 17.1356 10.9556 16.4353 10.5194 15.8141C7.79875 11.9406 7.5 11.4656 7.5 10C7.5 7.51875 9.51875 5.5 12 5.5C14.4812 5.5 16.5 7.51875 16.5 10C16.5 11.465 16.2012 11.9397 13.4806 15.8156C13.0438 16.4094 12.5531 17.1375 12 17.9312ZM14.25 9.25H12.7219V7.72187C12.7219 7.33437 12.4156 7 12 7C11.5844 7 11.25 7.33437 11.25 7.72187V9.25H9.72187C9.33437 9.25 9 9.58437 9 10C9 10.4144 9.33531 10.7219 9.72187 10.7219H11.25V12.25C11.25 12.6656 11.5844 13 12 13C12.4144 13 12.7219 12.6644 12.7219 12.2781V10.7219H14.2219C14.6656 10.7219 15 10.4156 15 10C15 9.58437 14.6656 9.25 14.25 9.25Z" fill="black"/>
</g>
<defs>
<clipPath id="clip0_371_4243">
<rect width="24" height="24" />
</clipPath>
</defs>
</svg>
