<svg width="60" height="60" viewBox="0 0 60 60" fill="none" xmlns="http://www.w3.org/2000/svg">
<g clip-path="url(#clip0_320_2286)">
<path d="M30 0.75C46.1543 0.75 59.25 13.8457 59.25 30C59.25 46.1543 46.1543 59.25 30 59.25C13.8457 59.25 0.75 46.1543 0.75 30C0.75 13.8457 13.8457 0.75 30 0.75Z" fill="white" stroke="#DBDBDB" stroke-width="1.5"/>
<mask id="mask0_320_2286" style="mask-type:luminance" maskUnits="userSpaceOnUse" x="16" y="16" width="28" height="28">
<path d="M43.636 16.3633H16.3633V43.636H43.636V16.3633Z" fill="white"/>
</mask>
<g mask="url(#mask0_320_2286)">
<path d="M43.0909 30.3088C43.0909 29.3419 43.0042 28.4122 42.843 27.5195H30V32.7943H37.3388C37.0227 34.4989 36.062 35.9431 34.6178 36.9101V40.3316H39.0248C41.6033 37.9576 43.0909 34.4617 43.0909 30.3088Z" fill="#4285F4"/>
<path d="M30.0005 43.6353C33.6823 43.6353 36.769 42.4142 39.0251 40.3316L34.6181 36.9101C33.3971 37.7283 31.8351 38.2117 30.0005 38.2117C26.4487 38.2117 23.4426 35.8129 22.3702 32.5898H17.8145V36.1229C20.0583 40.5795 24.6699 43.6353 30.0005 43.6353Z" fill="#34A853"/>
<path d="M22.3694 32.5899C22.0967 31.7717 21.9418 30.8977 21.9418 29.999C21.9418 29.1002 22.0967 28.2262 22.3694 27.408V23.875H17.8136C16.8902 25.7159 16.3633 27.7986 16.3633 29.999C16.3633 32.1993 16.8902 34.282 17.8136 36.1229L22.3694 32.5899Z" fill="#FBBC04"/>
<path d="M30.0005 21.7869C32.0024 21.7869 33.8 22.4748 35.2132 23.8261L39.1244 19.9149C36.7629 17.7145 33.676 16.3633 30.0005 16.3633C24.6699 16.3633 20.0583 19.4191 17.8145 23.8757L22.3702 27.4087C23.4426 24.1856 26.4487 21.7869 30.0005 21.7869Z" fill="#E94235"/>
</g>
</g>
<defs>
<clipPath id="clip0_320_2286">
<rect width="60" height="60" fill="white"/>
</clipPath>
</defs>
</svg>
