<svg width="252" height="61" viewBox="0 0 252 61" fill="none" xmlns="http://www.w3.org/2000/svg">
<path d="M33.2386 12.6364V49H28.9773L9.16193 20.4489H8.80682V49H4.40341V12.6364H8.66477L28.5511 41.2585H28.9062V12.6364H33.2386ZM42.0499 49V12.6364H63.9959V16.5426H46.4533V28.8295H62.8596V32.7358H46.4533V45.0938H64.28V49H42.0499ZM102.615 30.8182C102.615 34.6534 101.922 37.9678 100.537 40.7614C99.1522 43.5549 97.2523 45.7093 94.8375 47.2244C92.4228 48.7396 89.6647 49.4972 86.5634 49.4972C83.4621 49.4972 80.704 48.7396 78.2892 47.2244C75.8745 45.7093 73.9746 43.5549 72.5897 40.7614C71.2047 37.9678 70.5123 34.6534 70.5123 30.8182C70.5123 26.983 71.2047 23.6686 72.5897 20.875C73.9746 18.0814 75.8745 15.9271 78.2892 14.4119C80.704 12.8968 83.4621 12.1392 86.5634 12.1392C89.6647 12.1392 92.4228 12.8968 94.8375 14.4119C97.2523 15.9271 99.1522 18.0814 100.537 20.875C101.922 23.6686 102.615 26.983 102.615 30.8182ZM98.3532 30.8182C98.3532 27.6695 97.8264 25.0121 96.7729 22.8459C95.7312 20.6797 94.3167 19.0402 92.5293 17.9276C90.7537 16.8149 88.7651 16.2585 86.5634 16.2585C84.3617 16.2585 82.3671 16.8149 80.5797 17.9276C78.8042 19.0402 77.3896 20.6797 76.3361 22.8459C75.2944 25.0121 74.7736 27.6695 74.7736 30.8182C74.7736 33.9669 75.2944 36.6243 76.3361 38.7905C77.3896 40.9567 78.8042 42.5961 80.5797 43.7088C82.3671 44.8215 84.3617 45.3778 86.5634 45.3778C88.7651 45.3778 90.7537 44.8215 92.5293 43.7088C94.3167 42.5961 95.7312 40.9567 96.7729 38.7905C97.8264 36.6243 98.3532 33.9669 98.3532 30.8182ZM153.343 24H148.939C148.679 22.7334 148.223 21.6207 147.572 20.6619C146.933 19.7031 146.151 18.8982 145.228 18.2472C144.317 17.5843 143.305 17.0871 142.192 16.7557C141.079 16.4242 139.919 16.2585 138.712 16.2585C136.51 16.2585 134.516 16.8149 132.728 17.9276C130.953 19.0402 129.538 20.6797 128.485 22.8459C127.443 25.0121 126.922 27.6695 126.922 30.8182C126.922 33.9669 127.443 36.6243 128.485 38.7905C129.538 40.9567 130.953 42.5961 132.728 43.7088C134.516 44.8215 136.51 45.3778 138.712 45.3778C139.919 45.3778 141.079 45.2121 142.192 44.8807C143.305 44.5492 144.317 44.058 145.228 43.407C146.151 42.7441 146.933 41.9332 147.572 40.9744C148.223 40.0038 148.679 38.8911 148.939 37.6364H153.343C153.011 39.4948 152.407 41.1579 151.531 42.6257C150.655 44.0935 149.566 45.3423 148.264 46.3722C146.962 47.3902 145.5 48.1655 143.879 48.6982C142.269 49.2308 140.547 49.4972 138.712 49.4972C135.611 49.4972 132.852 48.7396 130.438 47.2244C128.023 45.7093 126.123 43.5549 124.738 40.7614C123.353 37.9678 122.661 34.6534 122.661 30.8182C122.661 26.983 123.353 23.6686 124.738 20.875C126.123 18.0814 128.023 15.9271 130.438 14.4119C132.852 12.8968 135.611 12.1392 138.712 12.1392C140.547 12.1392 142.269 12.4055 143.879 12.9382C145.5 13.4709 146.962 14.2521 148.264 15.282C149.566 16.3 150.655 17.5428 151.531 19.0107C152.407 20.4666 153.011 22.1297 153.343 24ZM161.95 49H157.333L170.685 12.6364H175.231L188.583 49H183.967L173.1 18.3892H172.816L161.95 49ZM163.654 34.7955H182.262V38.7017H163.654V34.7955ZM194.247 49V12.6364H206.534C209.375 12.6364 211.707 13.1217 213.53 14.0923C215.353 15.0511 216.702 16.371 217.578 18.0518C218.454 19.7327 218.892 21.6444 218.892 23.7869C218.892 25.9295 218.454 27.8293 217.578 29.4865C216.702 31.1437 215.359 32.4458 213.548 33.3928C211.737 34.3279 209.422 34.7955 206.605 34.7955H196.662V30.8182H206.463C208.404 30.8182 209.967 30.5341 211.151 29.9659C212.346 29.3977 213.21 28.5928 213.743 27.5511C214.287 26.4976 214.56 25.2429 214.56 23.7869C214.56 22.331 214.287 21.0585 213.743 19.9695C213.198 18.8804 212.328 18.04 211.133 17.4482C209.937 16.8445 208.357 16.5426 206.392 16.5426H198.651V49H194.247ZM211.364 32.6648L220.312 49H215.199L206.392 32.6648H211.364ZM226.23 49V12.6364H248.176V16.5426H230.633V28.8295H247.039V32.7358H230.633V45.0938H248.46V49H226.23Z" fill="black"/>
</svg>
