<svg width="202" height="48" viewBox="0 0 202 48" fill="none" xmlns="http://www.w3.org/2000/svg">
<path d="M26.5909 9.90909V39H23.1818L7.32955 16.1591H7.04545V39H3.52273V9.90909H6.93182L22.8409 32.8068H23.125V9.90909H26.5909ZM33.6399 39V9.90909H51.1967V13.0341H37.1626V22.8636H50.2876V25.9886H37.1626V35.875H51.424V39H33.6399ZM82.0916 24.4545C82.0916 27.5227 81.5376 30.1742 80.4297 32.4091C79.3217 34.6439 77.8018 36.3674 75.87 37.5795C73.9382 38.7917 71.7318 39.3977 69.2507 39.3977C66.7697 39.3977 64.5632 38.7917 62.6314 37.5795C60.6996 36.3674 59.1797 34.6439 58.0717 32.4091C56.9638 30.1742 56.4098 27.5227 56.4098 24.4545C56.4098 21.3864 56.9638 18.7348 58.0717 16.5C59.1797 14.2652 60.6996 12.5417 62.6314 11.3295C64.5632 10.1174 66.7697 9.51136 69.2507 9.51136C71.7318 9.51136 73.9382 10.1174 75.87 11.3295C77.8018 12.5417 79.3217 14.2652 80.4297 16.5C81.5376 18.7348 82.0916 21.3864 82.0916 24.4545ZM78.6825 24.4545C78.6825 21.9356 78.2611 19.8097 77.4183 18.0767C76.585 16.3438 75.4534 15.0322 74.0234 14.142C72.603 13.2519 71.0121 12.8068 69.2507 12.8068C67.4893 12.8068 65.8937 13.2519 64.4638 14.142C63.0433 15.0322 61.9117 16.3438 61.0689 18.0767C60.2356 19.8097 59.8189 21.9356 59.8189 24.4545C59.8189 26.9735 60.2356 29.0994 61.0689 30.8324C61.9117 32.5653 63.0433 33.8769 64.4638 34.767C65.8937 35.6572 67.4893 36.1023 69.2507 36.1023C71.0121 36.1023 72.603 35.6572 74.0234 34.767C75.4534 33.8769 76.585 32.5653 77.4183 30.8324C78.2611 29.0994 78.6825 26.9735 78.6825 24.4545ZM122.674 19H119.151C118.943 17.9867 118.578 17.0966 118.058 16.3295C117.546 15.5625 116.921 14.9186 116.183 14.3977C115.453 13.8674 114.644 13.4697 113.754 13.2045C112.863 12.9394 111.935 12.8068 110.969 12.8068C109.208 12.8068 107.612 13.2519 106.183 14.142C104.762 15.0322 103.63 16.3438 102.788 18.0767C101.954 19.8097 101.538 21.9356 101.538 24.4545C101.538 26.9735 101.954 29.0994 102.788 30.8324C103.63 32.5653 104.762 33.8769 106.183 34.767C107.612 35.6572 109.208 36.1023 110.969 36.1023C111.935 36.1023 112.863 35.9697 113.754 35.7045C114.644 35.4394 115.453 35.0464 116.183 34.5256C116.921 33.9953 117.546 33.3466 118.058 32.5795C118.578 31.803 118.943 30.9129 119.151 29.9091H122.674C122.409 31.3958 121.926 32.7263 121.225 33.9006C120.524 35.0748 119.653 36.0739 118.612 36.8977C117.57 37.7121 116.4 38.3324 115.103 38.7585C113.815 39.1847 112.437 39.3977 110.969 39.3977C108.488 39.3977 106.282 38.7917 104.35 37.5795C102.418 36.3674 100.898 34.6439 99.7905 32.4091C98.6825 30.1742 98.1286 27.5227 98.1286 24.4545C98.1286 21.3864 98.6825 18.7348 99.7905 16.5C100.898 14.2652 102.418 12.5417 104.35 11.3295C106.282 10.1174 108.488 9.51136 110.969 9.51136C112.437 9.51136 113.815 9.72443 115.103 10.1506C116.4 10.5767 117.57 11.2017 118.612 12.0256C119.653 12.84 120.524 13.8343 121.225 15.0085C121.926 16.1733 122.409 17.5038 122.674 19ZM129.56 39H125.866L136.548 9.90909H140.185L150.866 39H147.173L138.48 14.5114H138.253L129.56 39ZM130.923 27.6364H145.81V30.7614H130.923V27.6364ZM155.398 39V9.90909H165.227C167.5 9.90909 169.366 10.2973 170.824 11.0739C172.282 11.8409 173.362 12.8968 174.062 14.2415C174.763 15.5862 175.114 17.1155 175.114 18.8295C175.114 20.5436 174.763 22.0634 174.062 23.3892C173.362 24.715 172.287 25.7566 170.838 26.5142C169.389 27.2623 167.538 27.6364 165.284 27.6364H157.33V24.4545H165.17C166.723 24.4545 167.973 24.2273 168.92 23.7727C169.877 23.3182 170.568 22.6742 170.994 21.8409C171.43 20.9981 171.648 19.9943 171.648 18.8295C171.648 17.6648 171.43 16.6468 170.994 15.7756C170.559 14.9044 169.863 14.232 168.906 13.7585C167.95 13.2756 166.686 13.0341 165.114 13.0341H158.92V39H155.398ZM169.091 25.9318L176.25 39H172.159L165.114 25.9318H169.091ZM180.984 39V9.90909H198.54V13.0341H184.506V22.8636H197.631V25.9886H184.506V35.875H198.768V39H180.984Z" fill="black"/>
</svg>
