<svg viewBox="0 0 24 24" fill="none" xmlns="http://www.w3.org/2000/svg">
<g clip-path="url(#clip0_371_4226)">
<rect width="24" height="24" />
<path d="M13.5 13.5H10.5C7.4625 13.5 5 15.9625 5 19C5 19.5531 5.44687 20 6 20H18C18.5531 20 19 19.5531 19 19C19 15.9625 16.5375 13.5 13.5 13.5ZM6.53125 18.5C6.77813 16.5281 8.4625 15 10.5 15H13.5C15.5375 15 17.2219 16.5312 17.4688 18.5H6.53125ZM12 12C14.2094 12 16 10.2094 16 8C16 5.79063 14.2094 4 12 4C9.79063 4 8 5.79063 8 8C8 10.2094 9.79063 12 12 12ZM12 5.5C13.3781 5.5 14.5 6.62188 14.5 8C14.5 9.37813 13.3781 10.5 12 10.5C10.6219 10.5 9.5 9.37813 9.5 8C9.5 6.62188 10.6219 5.5 12 5.5Z" fill="black"/>
</g>
<defs>
<clipPath id="clip0_371_4226">
<rect width="24" height="24" />
</clipPath>
</defs>
</svg>
