<svg viewBox="0 0 24 24" fill="none" xmlns="http://www.w3.org/2000/svg">
<rect width="24" height="24" />
<path d="M18.784 17.8789L15.1199 14.2148C15.9129 13.2441 16.3504 12.0219 16.3504 10.6875C16.3504 7.5457 13.8039 5 10.6629 5C7.52192 5 5 7.54652 5 10.6875C5 13.8285 7.54626 16.375 10.6629 16.375C11.997 16.375 13.2209 15.9126 14.1902 15.1434L17.8543 18.8075C18.0074 18.9371 18.177 19 18.3438 19C18.5106 19 18.6795 18.9359 18.8078 18.8077C19.0629 18.5516 19.0629 18.1359 18.784 17.8789ZM6.31251 10.6875C6.31251 8.27523 8.27524 6.3125 10.6875 6.3125C13.0998 6.3125 15.0625 8.27523 15.0625 10.6875C15.0625 13.0998 13.0998 15.0625 10.6875 15.0625C8.27524 15.0625 6.31251 13.0992 6.31251 10.6875Z" fill="black"/>
</svg>
