<svg width="24" height="24" viewBox="0 0 24 24" fill="none" xmlns="http://www.w3.org/2000/svg">
<g clip-path="url(#clip0_371_4230)">
<rect width="24" height="24" />
<path d="M12 5C9.50625 5 7.24062 6.36156 6 8.44063V5.75C6 5.33594 5.66406 5 5.25 5C4.83594 5 4.5 5.33594 4.5 5.75V10.25C4.5 10.6656 4.83594 11 5.25 11H9.25C9.66563 11 10 10.6656 10 10.25C10 9.83437 9.66563 9.5 9.25 9.5H7.11063C8.0375 7.69688 9.92188 6.49875 12 6.49875C15.0322 6.49875 17.5 8.96781 17.5 11.9988C17.5 15.0297 15.0322 17.4706 12 17.4706C10.7159 17.4706 9.46594 17.0194 8.48125 16.1981C8.16375 15.9325 7.69031 15.9745 7.42469 16.2938C7.15906 16.6123 7.20203 17.0848 7.52038 17.3504C8.775 18.425 10.3656 19 12 19C15.8594 19 19 15.8594 19 12C19 8.14062 15.8594 5 12 5ZM12 8C11.5875 8 11.25 8.3375 11.25 8.75V12.5C11.25 12.7422 11.3669 12.9697 11.5637 13.1103L13.3138 14.3603C13.4469 14.4563 13.6 14.5 13.7219 14.5C13.9558 14.5 14.1862 14.3906 14.3328 14.1856C14.5735 13.8488 14.4954 13.3809 14.1585 13.1397L12.75 12.1156V8.75C12.75 8.3375 12.4156 8 12 8Z" fill="black"/>
</g>
<defs>
<clipPath id="clip0_371_4230">
<rect width="24" height="24" />
</clipPath>
</defs>
</svg>
