<svg viewBox="0 0 24 24" fill="none" xmlns="http://www.w3.org/2000/svg">
<g clip-path="url(#clip0_371_4228)">
<rect width="24" height="24" />
<path d="M20.491 4.53844L19.4652 3.51281C19.122 3.17097 18.675 3 18.2249 3C17.777 3 17.3291 3.17091 16.9871 3.51281L10.2356 10.2656C9.97301 10.5 9.8386 10.7969 9.76359 11.1187L9.01029 14.475C8.95403 14.7531 9.1697 15 9.41038 15C9.43901 15 9.46827 14.9971 9.49781 14.9912C9.49781 14.9912 11.8118 14.5003 12.8548 14.255C13.1705 14.1807 13.4528 14.0219 13.6819 13.7928L20.4647 7.01152C21.1756 6.32812 21.1724 5.22187 20.491 4.53844ZM19.4314 5.95L12.6486 12.7312C12.6142 12.7656 12.5799 12.7844 12.5392 12.7937C12.111 12.8946 11.4562 13.0393 10.842 13.1731L11.2299 11.4481C11.2389 11.4031 11.2608 11.3594 11.2952 11.3281L18.0499 4.575C18.1092 4.51281 18.178 4.5 18.2249 4.5C18.2718 4.5 18.341 4.51269 18.4015 4.57319L19.4274 5.59912C19.5283 5.69812 19.5283 5.85219 19.4314 5.95ZM18.253 12C17.8389 12 17.5029 12.3359 17.5029 12.75V16.75C17.5029 17.1634 17.1659 17.5 16.7527 17.5H7.25051C6.83729 17.5 6.50034 17.1634 6.50034 16.75V7.25C6.50034 6.83656 6.83729 6.5 7.25051 6.5H11.7515C12.1657 6.5 12.5017 6.16406 12.5017 5.75C12.5017 5.33594 12.1673 5 11.7515 5L7.22238 4.99969C6.00992 4.99969 5 6.00906 5 7.22188V16.7219C5 17.9906 6.00992 19 7.22238 19H16.6964C17.937 19 18.9188 17.9906 18.9188 16.75L19.0032 12.75C19.0032 12.3375 18.6687 12 18.253 12Z" fill="black"/>
</g>
<defs>
<clipPath id="clip0_371_4228">
<rect width="24" height="24" />
</clipPath>
</defs>
</svg>
